<svg xmlns="http://www.w3.org/2000/svg" viewBox="0 0 750 500"><g id="freepik--background-simple--inject-54"><path d="M709.9,345.72,617.09,454.29l0,.37H163.33S77,415.33,56.92,355.34q-.86-2.52-1.54-5.1c-16.75-62.85-12-158.61,50.42-208.07S274.19,123.54,310,117.81s93.32-54.47,127.7-66.66S585,36.1,647.45,115.66c50.87,64.8,60.3,176.67,62,215.94C709.9,340.54,709.9,345.72,709.9,345.72Z" style="fill:#8494B4"></path><path d="M709.9,345.72,617.09,454.29l0,.37H163.33S77,415.33,56.92,355.34q-.86-2.52-1.54-5.1c-16.75-62.85-12-158.61,50.42-208.07S274.19,123.54,310,117.81s93.32-54.47,127.7-66.66S585,36.1,647.45,115.66c50.87,64.8,60.3,176.67,62,215.94C709.9,340.54,709.9,345.72,709.9,345.72Z" style="fill:#fff;opacity:0.8"></path></g><g id="freepik--Mountains--inject-54"><path d="M127.34,335.26s18.06-37.57,20-35,1.93,8.38,1.93,8.38,40.61-133.41,49-123.75,27.07,91.52,27.07,91.52,3.87-9.66,8.38-7.09,24.49,59.94,24.49,59.94,21.92-35.44,27.72-33.51,7.73,5.15,7.73,5.15,4.51-8.37,11.6-7.73,10.31,1.93,10.31,1.93S338.11,238.4,343.91,239s28.36,55.43,28.36,55.43S393.54,268,398.7,272.56s25.13,45.76,25.13,45.76,6.45-11,12.25-9,31.58,49.63,31.58,49.63H115.76Z" style="fill:#b2b2b2"></path><path d="M322.44,278.5l0,.13s11.15-21.52,13.07-18.83,7.69,13.45,9.23,9.61.76-8.46,2.3-6.92,3.46,8.84,4.62,8.46,3.07-7.31,3.07-7.31,7.69,21.14,10,18.45a9,9,0,0,0,1.31-2.19c-7.13-16.28-18.31-40.43-22.15-40.86S329.57,261.82,322.44,278.5Z" style="fill:#d4d4d4"></path><path d="M177.91,240.19c2.7.39,9.62-26.52,11.54-23.83s1.15,6.53,3.46,6.15,5-5.38,5.76-7.31,6.92,25,10.38,23.84c3-1,4-9,4.19-11.07-5.32-19.62-11.2-38.7-15-43.07-3.16-3.65-10.91,13.09-19.34,35.34C177.72,227.61,176,239.92,177.91,240.19Z" style="fill:#d4d4d4"></path><path d="M379.89,285.67c-.07,2,.15,4.5,1.77,4.5,2.69,0,6.15-6.92,7.69-7.69s6.53,7.3,8.46,5a15.44,15.44,0,0,0,2.69-5l6.15,5.76,3.66,3.38c-4.77-9-9.47-17.19-11.61-19.06C395.57,269.82,386.53,278.45,379.89,285.67Z" style="fill:#d4d4d4"></path></g><g id="freepik--Duck--inject-54"><path d="M252.11,333.25a19.7,19.7,0,0,1-4.08,3.52c-1.67.84-3.89,2-3.71,2.6s1.21.65,2.41.55a11.17,11.17,0,0,0,4-1.11,19.53,19.53,0,0,1,3.61-1.48c.37,0,1.49.09,1.49.09l1.48-.09a2.53,2.53,0,0,1,.65,2.41c-.46,1.3-2.32,3.8-3.25,6.3a9,9,0,0,0,.47,6.68c.65.93,2.41,2.32,5.93,3.24s39.59,0,39.59,0a34.84,34.84,0,0,0,6.12-1.67c2.41-1,3.52-3.33,4.08-4s5.47-4.82,6.39-6,.74-1.57.28-1.3a3.93,3.93,0,0,1-1.3.37s1-.74.28-.83a8.53,8.53,0,0,0-2.32.37,15.31,15.31,0,0,0-3.33.19l-2-.1a14.27,14.27,0,0,1,2.68-1.94c1.3-.65,3.34-2,2-1.76s-3.52.37-5.93.55-3.8-.93-11.77-1.39-17.53-.28-22.62.93-6.86,4-6.86,4a41.51,41.51,0,0,1-.65-6.67c0-3.25.37-5.1-2.14-7.6s-6.86-2.23-8.8-.93S251.74,332.41,252.11,333.25Z" style="fill:#fff;stroke:#263238;stroke-linecap:round;stroke-linejoin:round;stroke-width:0.75px"></path><path d="M307,340.05l0-.2c-2.07,0-3.9-1-11.1-1.41-8-.46-17.53-.28-22.62.93s-6.86,4-6.86,4a41.51,41.51,0,0,1-.65-6.67c0-3.25.37-5.1-2.14-7.6s-6.86-2.23-8.8-.93-3.06,4.26-2.69,5.1a19.7,19.7,0,0,1-4.08,3.52c-1.67.84-3.89,2-3.71,2.6s1.21.65,2.41.55a11.17,11.17,0,0,0,4-1.11,19.53,19.53,0,0,1,3.61-1.48c.37,0,1.49.09,1.49.09l1.48-.09a2.53,2.53,0,0,1,.65,2.41c-.46,1.3-2.32,3.8-3.25,6.3a9,9,0,0,0,.47,6.68c.65.93,2.41,2.32,5.93,3.24a57.39,57.39,0,0,0,8.29.4c-1.07-1.22-2.89-3.13-3.08-4.56-.29-2.17,1.3-3.12,2.17-3.91s1.16-2.33,2.62-3.56,8.63-3.41,13.78-3.77S307,340.05,307,340.05Z" style="fill:#616161;stroke:#263238;stroke-miterlimit:10"></path><path d="M257.2,341.23h8.86a37.43,37.43,0,0,1-.32-4.55c0-3.25.37-5.1-2.14-7.6s-6.86-2.23-8.8-.93-3.06,4.26-2.69,5.1a19.7,19.7,0,0,1-4.08,3.52c-1.67.84-3.89,2-3.71,2.6s1.21.65,2.41.55a11.17,11.17,0,0,0,4-1.11,19.53,19.53,0,0,1,3.61-1.48c.37,0,1.49.09,1.49.09l1.48-.09a2.53,2.53,0,0,1,.65,2.41A10.34,10.34,0,0,1,257.2,341.23Z" style="fill:#263238;stroke:#263238;stroke-miterlimit:10"></path><path d="M254.33,337.33l.65-.56c.65-.55-.65-.37-1.3-1.2a3,3,0,0,1-.27-2.69c.18-1-1.3.37-1.3.37a19.7,19.7,0,0,1-4.08,3.52c-1.67.84-3.89,2-3.71,2.6s1.21.65,2.41.55a11.17,11.17,0,0,0,4-1.11A19.53,19.53,0,0,1,254.33,337.33Z" style="fill:#fff;stroke:#263238;stroke-linecap:round;stroke-linejoin:round;stroke-width:0.75px"></path><path d="M308.85,343s-2,2-7.14,4.55-15,.83-15,.83,1.57,1.95-7.42,2.69-10.47-2.87-9.55-4.45" style="fill:none;stroke:#263238;stroke-linecap:round;stroke-linejoin:round;stroke-width:0.75px"></path><path d="M303,347.05h0Z" style="fill:#fff;stroke:#263238;stroke-linecap:round;stroke-linejoin:round;stroke-width:0.75px"></path><path d="M317.28,344.28c.93-1.2.74-1.57.28-1.3a3.93,3.93,0,0,1-1.3.37s1-.74.28-.83a8.53,8.53,0,0,0-2.32.37,15.31,15.31,0,0,0-3.33.19l-1.74-.08-1.6,1.19L303,347.05c.16-.1,1.39-.74,2.94,1.59,1.67,2.5,1.3,4,3.34,3.71h.08c.73-.85,1.2-1.68,1.5-2C311.44,349.66,316.36,345.49,317.28,344.28Z" style="fill:#263238;stroke:#263238;stroke-miterlimit:10"></path><path d="M266,340.67h-8.48c-.24.46-.56,1-.9,1.57h9.59C266.14,341.81,266.06,341.27,266,340.67Z" style="fill:#fff;stroke:#263238;stroke-linecap:round;stroke-linejoin:round;stroke-width:0.75px"></path><circle cx="258.18" cy="331.35" r="0.7" style="fill:#fff"></circle></g><g id="freepik--Lake--inject-54"><path d="M438.45,391.39c-13.16,27-20.17,39.51-36.84,47.13s-73.66,16-73.66,16l-10.94.19H163.33S77,415.33,56.92,355.34H447.23S451.6,364.35,438.45,391.39Z" style="fill:#8494B4"></path></g><g id="freepik--Trees--inject-54"><path d="M631.88,209.52c0,22.62-19.35,41-43.23,41s-43.23-18.34-43.23-41,19.36-55.38,43.23-55.38S631.88,186.89,631.88,209.52Z" style="fill:#8494B4"></path><path d="M631.88,209.52c0,22.62-19.35,41-43.23,41s-43.23-18.34-43.23-41,19.36-55.38,43.23-55.38S631.88,186.89,631.88,209.52Z" style="fill:#fff;opacity:0.51"></path><polygon points="584.98 332.09 585.66 244.05 572.57 224.31 585.65 238.88 585.65 223.72 578.51 200.54 586.24 218.97 587.59 188.84 588.32 221.64 588.62 226.99 609.43 207.67 589.51 231.15 589.22 238.88 597.83 231.75 606.45 218.67 600.37 230.93 613.88 230.26 599.32 232.48 589.81 241.7 590.4 332.07 584.98 332.09" style="fill:#787878"></polygon><path d="M703.57,233.19c0,18.26-15.62,33.06-34.89,33.06s-34.88-14.8-34.88-33.06,15.62-44.68,34.88-44.68S703.57,214.94,703.57,233.19Z" style="fill:#8494B4"></path><path d="M703.57,233.19c0,18.26-15.62,33.06-34.89,33.06s-34.88-14.8-34.88-33.06,15.62-44.68,34.88-44.68S703.57,214.94,703.57,233.19Z" style="fill:#fff;opacity:0.51"></path><polygon points="665.72 332.09 666.27 261.06 655.71 245.13 666.26 256.88 666.26 244.65 660.5 225.95 666.74 240.82 667.82 216.51 668.42 242.97 668.66 247.29 685.45 231.7 669.38 250.65 669.14 256.88 676.09 251.13 683.05 240.58 678.14 250.47 689.04 249.93 677.29 251.72 669.62 259.16 670.1 332.07 665.72 332.09" style="fill:#787878"></polygon><path d="M565,168.93c0,30.11-25.77,54.53-57.55,54.53S449.91,199,449.91,168.93s25.76-73.72,57.55-73.72S565,138.81,565,168.93Z" style="fill:#8494B4"></path><path d="M565,168.93c0,30.11-25.77,54.53-57.55,54.53S449.91,199,449.91,168.93s25.76-73.72,57.55-73.72S565,138.81,565,168.93Z" style="fill:#fff;opacity:0.32"></path><polygon points="502.56 332.09 503.47 214.89 486.05 188.62 503.46 208.01 503.46 187.83 493.96 156.97 504.25 181.5 506.04 141.39 507.02 185.06 507.41 192.18 535.11 166.47 508.6 197.72 508.2 208.01 519.68 198.51 531.15 181.11 523.06 197.43 541.04 196.54 521.66 199.49 509 211.76 509.79 332.06 502.56 332.09" style="fill:#787878"></polygon><path d="M693.68,129c0,37.48-32.07,67.86-71.62,67.86S550.44,166.51,550.44,129s32.06-91.74,71.62-91.74S693.68,91.55,693.68,129Z" style="fill:#8494B4"></path><path d="M693.68,129c0,37.48-32.07,67.86-71.62,67.86S550.44,166.51,550.44,129s32.06-91.74,71.62-91.74S693.68,91.55,693.68,129Z" style="fill:#fff;opacity:0.15"></path><polygon points="615.97 332.09 617.1 186.24 595.42 153.54 617.08 177.67 617.08 152.56 605.26 114.15 618.07 144.68 620.29 94.77 621.51 149.11 622.01 157.98 656.47 125.97 623.48 164.87 622.99 177.67 637.27 165.85 651.55 144.19 641.48 164.51 663.86 163.39 639.73 167.07 623.98 182.34 624.96 332.06 615.97 332.09" style="fill:#263238"></polygon></g><g id="freepik--Deer--inject-54"><path d="M547.63,280.15s11.94,16.31,15.46,19.89,3.88,5.81,1.81,10.21-7.46,13.3-9.33,15.47-5.18,6.12-4.5,6.7,4.31.26,4.88-.15,1.91-3.7,1.91-3.7a1,1,0,0,0,1.55-.8c.32-1.38,6.15-11.1,8.35-15.22s5.22-7.65,6.68-10.25,2.17-3.15.3-6-10.21-14.67-10.34-15.23S547.63,280.15,547.63,280.15Z" style="fill:#263238;stroke:#263238;stroke-linecap:round;stroke-linejoin:round"></path><path d="M519.4,288.87s.27,3.06.27,10-.69,8.21.14,10.86,1.12,8.62.56,12.52-2.64,9.46-2.5,10.29,2.08.84,2.78.42,1.67-3.34,2.36-8.49,1.53-20,1.53-20l2.65-17.39Z" style="fill:#263238;stroke:#263238;stroke-linecap:round;stroke-linejoin:round"></path><path d="M486.28,300.55s-2.36,2.37-3.89,4.32-1.53,3.47-1.53,5.56.28,6.4.28,8.07.41,4.87.41,7.23-.55,2.65.56,3.34a4.18,4.18,0,0,0,5-1.53,21.91,21.91,0,0,0,1.53-3.75,31.07,31.07,0,0,0,3.06-5.85c.83-2.5,2-5.56,2-5.56s3.75-9.32,9-14.61,9.46-7,12.24-7.23,7.24,0,9.33-.14,7-2.93,11-5.71,5.35-2.91,14.53-2.66,10.58-.27,10.58-.27,5.93,7.12,10.19,9,8.07,5.37,14.85,11.82,8.2,21.1,8.41,23.61-.37,3.19-.83,4.85-.48,2.22.91,2.25,2.37-.07,2.68-1.18a5,5,0,0,1,.89-2.2c.73-1.09,1.71-1.34,1-2.75a202.27,202.27,0,0,1-5.43-20.33c-.71-4.48-1.65-10.77-2.47-11.62s-3.82-2.61-7.18-6.88-5.69-5.86-3.73-11.51A46.73,46.73,0,0,0,582,265.37s.79,6.84,1,7.4,3.42-2.83,2.44-7.59-7.56-8.83-7.56-8.83a104.63,104.63,0,0,0-18.59-7.19c-9.81-2.63-29.2,2.56-33.24,4.65s-11.26,1.8-15,6.81-15.31,27.13-17,29.92S486.28,300.55,486.28,300.55Z" style="fill:#fff;stroke:#263238;stroke-linecap:round;stroke-linejoin:round"></path><path d="M512.3,274.4s-1.67,5,1.39,7.51,10.44,6,10.58,8.49-1.67,12.24-1.4,15.72a60.4,60.4,0,0,1,.28,6.12c0,1.67-1.53,14.89-2.22,17.25a24.57,24.57,0,0,1-1.67,4.18,13,13,0,0,0,2.78.13c1-.13,1.81-2.5,1.81-2.5s1.25,0,1.53-1.95.42-13.49,1.53-17,4.59-16.7,5.43-20.87.41-6.12,2.78-9.18" style="fill:#fff;stroke:#263238;stroke-linecap:round;stroke-linejoin:round"></path><path d="M481.12,299.09c0-.28-.27-3.29-1.61-4.53s-1.77-.09-3.2-2.14-7.47-7.82-8.18-6.4,0,1.42,1.6,3.29,5,4.71,4.18,5.16-5.42,2.84-7.74,3-4.18.09-3.55,1.25a5,5,0,0,0,1.24,1.6s-2.13,1.69-1.15,2.67,2,.62,4.71-1.6,4.89-3.74,7.65-4.36,4.18.09,4.27,1.42S481,300.07,481.12,299.09Z" style="fill:#263238;stroke:#263238;stroke-linecap:round;stroke-linejoin:round"></path><path d="M483.43,306.39a6,6,0,0,1-.89-3.56c.09-2.22-.36-3.74-1.34-4.71a5.39,5.39,0,0,0-2.58-1.25,44,44,0,0,0-4.26-5.87c-1.69-1.69-3.38-2.13-3-.62s3.2,3.82,4.27,5.51.36,1.6-.62,2.4S473.2,300,472,300s-3.82-3.38-4.09-1.42,1.43,2.13,1.16,2.76-5.16,3.73-4.8,5.24,1.95.18,5.07-1.95,7.47-4.45,9.16-4.45,1.78.45,1.42,2.85-.44,6.13.71,6.58,1.87-.62,2.14-1.25" style="fill:#fff;stroke:#263238;stroke-linecap:round;stroke-linejoin:round"></path><path d="M484.67,313.86s-1.15-1.25-1.86-.27.08,2.05.8,1.42A6.42,6.42,0,0,0,484.67,313.86Z" style="fill:#263238;stroke:#263238;stroke-linecap:round;stroke-linejoin:round"></path><path d="M486.42,305.28a9.37,9.37,0,0,1-1.11-7.93c1.39-4.59,3.62-5.7,3.62-5.7s3.48,4.87,2.92,7.09a47.2,47.2,0,0,1-2.09,5.71" style="fill:#fff;stroke:#263238;stroke-linecap:round;stroke-linejoin:round"></path><path d="M488.09,303.47s-2.5-4.31-.83-8.07" style="fill:none;stroke:#263238;stroke-linecap:round;stroke-linejoin:round"></path></g><g id="freepik--Plants--inject-54"><path d="M462.27,329.11s1.33-4,2.5-7.18,4.84-8.68,4.84-8.68-2.83,6.17-3.17,8.68a51.17,51.17,0,0,1-1.67,6.68s1.17-2,3.34-5,4.68-5.18,5-5.84-3.34,5.51-4.34,7.51a17.16,17.16,0,0,0-1.34,3.51s1.67-1.34,4-3.18l2.34-1.83-4.68,5.67,4.68-1.33-2.34,3.67H456.76l-5.85-6.51,6.51,4.34s-.33.17-1.5-3-2.84-6.52-2.84-6.52a17.55,17.55,0,0,1,4.18,5.35L460.1,330a26.92,26.92,0,0,1,0-7c.5-3.84.83-7.18.83-7.18Z" style="fill:#8494B4"></path><path d="M503.07,329.11s1.33-4,2.5-7.18,4.84-8.68,4.84-8.68-2.84,6.17-3.17,8.68a51.17,51.17,0,0,1-1.67,6.68s1.17-2,3.34-5,4.68-5.18,5-5.84-3.34,5.51-4.34,7.51a17.16,17.16,0,0,0-1.34,3.51s1.67-1.34,4-3.18l2.34-1.83-4.68,5.67,4.68-1.33-2.34,3.67h-14.7l-5.84-6.51,6.51,4.34s-.33.17-1.5-3-2.84-6.52-2.84-6.52a17.55,17.55,0,0,1,4.18,5.35l2.83,4.51a27.46,27.46,0,0,1,0-7c.51-3.84.84-7.18.84-7.18Z" style="fill:#8494B4"></path><path d="M574.53,329.11s1.34-4,2.51-7.18,4.84-8.68,4.84-8.68-2.84,6.17-3.17,8.68a51.17,51.17,0,0,1-1.67,6.68s1.17-2,3.34-5,4.67-5.18,5-5.84-3.34,5.51-4.34,7.51a17.16,17.16,0,0,0-1.34,3.51s1.67-1.34,4-3.18l2.34-1.83-4.68,5.67,4.68-1.33-2.34,3.67H569l-5.84-6.51,6.51,4.34s-.33.17-1.5-3-2.84-6.52-2.84-6.52a17.61,17.61,0,0,1,4.17,5.35l2.84,4.51a27.46,27.46,0,0,1,0-7c.5-3.84.84-7.18.84-7.18Z" style="fill:#8494B4"></path><path d="M560.67,329.11s1.34-4,2.51-7.18,4.84-8.68,4.84-8.68-2.84,6.17-3.17,8.68a53,53,0,0,1-1.67,6.68s1.17-2,3.34-5,4.67-5.18,5-5.84-3.34,5.51-4.34,7.51a16.45,16.45,0,0,0-1.34,3.51s1.67-1.34,4-3.18l2.34-1.83-4.68,5.67,4.68-1.33-2.34,3.67h-14.7l-5.84-6.51,6.51,4.34s-.33.17-1.5-3-2.84-6.52-2.84-6.52a17.61,17.61,0,0,1,4.17,5.35L558.5,330a27.46,27.46,0,0,1,0-7c.5-3.84.84-7.18.84-7.18Z" style="fill:#8494B4"></path><path d="M546.81,329.11s1.34-4,2.51-7.18,4.84-8.68,4.84-8.68-2.84,6.17-3.17,8.68a53,53,0,0,1-1.67,6.68s1.17-2,3.34-5,4.67-5.18,5-5.84-3.34,5.51-4.34,7.51a16.45,16.45,0,0,0-1.34,3.51s1.67-1.34,4-3.18l2.34-1.83-4.68,5.67,4.68-1.33L556,331.78H541.3l-5.84-6.51,6.51,4.34s-.33.17-1.5-3-2.84-6.52-2.84-6.52a17.61,17.61,0,0,1,4.17,5.35l2.84,4.51a27.46,27.46,0,0,1,0-7c.5-3.84.84-7.18.84-7.18Z" style="fill:#8494B4"></path><path d="M533,329.11s1.34-4,2.51-7.18,4.84-8.68,4.84-8.68-2.84,6.17-3.17,8.68a53,53,0,0,1-1.67,6.68s1.17-2,3.34-5,4.67-5.18,5-5.84-3.34,5.51-4.34,7.51a16.45,16.45,0,0,0-1.34,3.51s1.67-1.34,4-3.18l2.34-1.83-4.68,5.67,4.68-1.33-2.34,3.67h-14.7l-5.84-6.51,6.51,4.34s-.33.17-1.5-3-2.84-6.52-2.84-6.52a17.61,17.61,0,0,1,4.17,5.35l2.84,4.51a27.46,27.46,0,0,1,0-7c.5-3.84.84-7.18.84-7.18Z" style="fill:#8494B4"></path><path d="M519.09,329.11s1.34-4,2.51-7.18,4.84-8.68,4.84-8.68-2.84,6.17-3.17,8.68a53,53,0,0,1-1.67,6.68s1.17-2,3.34-5,4.67-5.18,5-5.84-3.34,5.51-4.34,7.51a16.45,16.45,0,0,0-1.34,3.51s1.67-1.34,4-3.18l2.34-1.83-4.68,5.67,4.68-1.33-2.34,3.67h-14.7l-5.84-6.51,6.51,4.34s-.33.17-1.5-3-2.84-6.52-2.84-6.52a17.61,17.61,0,0,1,4.17,5.35l2.84,4.51a27.46,27.46,0,0,1,0-7c.5-3.84.84-7.18.84-7.18Z" style="fill:#8494B4"></path><path d="M592.84,328.41s1.69-5.05,3.16-9.05,6.11-10.95,6.11-10.95-3.58,7.79-4,10.95a66.26,66.26,0,0,1-2.11,8.42s1.47-2.52,4.21-6.31,5.9-6.53,6.32-7.37-4.21,6.94-5.48,9.47a21.48,21.48,0,0,0-1.68,4.42s2.1-1.68,5-4l3-2.31-5.9,7.15,5.9-1.68-3,4.63H585.89l-7.36-8.21,8.21,5.48s-.42.21-1.9-3.79-3.58-8.22-3.58-8.22a22.16,22.16,0,0,1,5.27,6.74l3.58,5.69a34.07,34.07,0,0,1,0-8.85c.63-4.84,1-9.05,1-9.05Z" style="fill:#8494B4"></path><path d="M683,328.41s1.69-5.05,3.16-9.05,6.1-10.95,6.1-10.95-3.57,7.79-4,10.95a65.09,65.09,0,0,1-2.1,8.42s1.47-2.52,4.21-6.31,5.9-6.53,6.32-7.37-4.21,6.94-5.48,9.47a21.48,21.48,0,0,0-1.68,4.42s2.1-1.68,5-4l3-2.31-5.9,7.15,5.9-1.68-3,4.63H676l-7.37-8.21,8.22,5.48s-.43.21-1.9-3.79-3.58-8.22-3.58-8.22a22,22,0,0,1,5.26,6.74l3.58,5.69a34.61,34.61,0,0,1,0-8.85c.64-4.84,1.06-9.05,1.06-9.05Z" style="fill:#8494B4"></path><path d="M665.48,328.41s1.68-5.05,3.15-9.05,6.11-10.95,6.11-10.95-3.58,7.79-4,10.95a64.49,64.49,0,0,1-2.11,8.42s1.48-2.52,4.21-6.31,5.9-6.53,6.32-7.37-4.21,6.94-5.47,9.47A21.22,21.22,0,0,0,672,328s2.11-1.68,5.06-4l2.94-2.31-5.89,7.15,5.89-1.68-2.94,4.63H658.53l-7.37-8.21,8.21,5.48s-.42.21-1.89-3.79S653.9,317,653.9,317a22.22,22.22,0,0,1,5.26,6.74l3.58,5.69a34.61,34.61,0,0,1,0-8.85c.63-4.84,1-9.05,1-9.05Z" style="fill:#8494B4"></path><path d="M648,328.41s1.68-5.05,3.16-9.05,6.1-10.95,6.1-10.95-3.57,7.79-4,10.95a65.09,65.09,0,0,1-2.1,8.42s1.47-2.52,4.21-6.31,5.89-6.53,6.32-7.37-4.21,6.94-5.48,9.47a21.48,21.48,0,0,0-1.68,4.42s2.1-1.68,5.05-4l2.95-2.31-5.9,7.15,5.9-1.68-2.95,4.63H641.05l-7.37-8.21,8.21,5.48s-.42.21-1.89-3.79-3.58-8.22-3.58-8.22a22,22,0,0,1,5.26,6.74l3.58,5.69a34.61,34.61,0,0,1,0-8.85c.64-4.84,1.06-9.05,1.06-9.05Z" style="fill:#8494B4"></path><path d="M630.53,328.41s1.68-5.05,3.15-9.05,6.11-10.95,6.11-10.95-3.58,7.79-4,10.95a64.49,64.49,0,0,1-2.11,8.42s1.48-2.52,4.21-6.31,5.9-6.53,6.32-7.37-4.21,6.94-5.47,9.47a21.22,21.22,0,0,0-1.69,4.42s2.11-1.68,5.06-4l2.94-2.31-5.89,7.15,5.89-1.68-2.94,4.63H623.58l-7.37-8.21,8.21,5.48s-.42.21-1.9-3.79S619,317,619,317a22.22,22.22,0,0,1,5.26,6.74l3.58,5.69a34.61,34.61,0,0,1,0-8.85c.63-4.84,1.05-9.05,1.05-9.05Z" style="fill:#8494B4"></path><path d="M613.05,328.41s1.68-5.05,3.16-9.05,6.1-10.95,6.1-10.95-3.57,7.79-4,10.95a65.09,65.09,0,0,1-2.1,8.42s1.47-2.52,4.21-6.31,5.89-6.53,6.32-7.37-4.22,6.94-5.48,9.47a21.48,21.48,0,0,0-1.68,4.42s2.1-1.68,5-4l3-2.31-5.9,7.15,5.9-1.68-3,4.63H606.1l-7.37-8.21,8.21,5.48s-.42.21-1.89-3.79-3.58-8.22-3.58-8.22a22,22,0,0,1,5.26,6.74l3.58,5.69a34.61,34.61,0,0,1,0-8.85c.63-4.84,1.06-9.05,1.06-9.05Z" style="fill:#8494B4"></path><path d="M623.74,328.07s1.86-5.56,3.48-10S633.94,306,633.94,306s-3.94,8.58-4.4,12.06a72.8,72.8,0,0,1-2.32,9.28s1.62-2.79,4.64-7,6.49-7.19,6.95-8.12-4.63,7.65-6,10.44a23.32,23.32,0,0,0-1.85,4.87s2.32-1.86,5.57-4.41l3.24-2.55-6.49,7.89,6.49-1.86-3.24,5.1H616.09l-8.12-9,9,6s-.46.23-2.08-4.18-3.95-9-3.95-9a24.27,24.27,0,0,1,5.8,7.42l4,6.26a37.75,37.75,0,0,1,0-9.74c.69-5.33,1.15-10,1.15-10Z" style="fill:#263238"></path><path d="M215.58,333.51a.58.58,0,0,0-.74-.33l-.62.26c-1.4-.46-4.18-.51-8.76,0C202.27,336,191,344.66,191.58,343c.64-1.88,7.67-5.93,9.1-8.85-2.79.44-6,1-9.78,1.79-4.3,2.55-8.18,9.74-10,11.08-1.35,1,1.2-5.71,2-9.14-1.28.39-2.6.82-3.94,1.3-2.68,2.54-5.66,5.94-6,8.21-.45,3.56-3.48,12.14-4.17,8.74-.49-2.4,1.38-10.3,1.57-13.52-1,.44-1.95.88-2.93,1.35-1.83,1.67-3.57,2.72-6.63,8.35-4.1,7.56-3.71,12.17-5.14,15.4s-1.42-12.17-1.72-16.1a3,3,0,0,0-.07-.45c-3,1.74-5.84,3.55-8.6,5.41-1.84,8.65,1,22.46.1,24.67s-5.2-9.09-5.71-16.25a7.37,7.37,0,0,0-1.07-3.67c-.93.71-1.82,1.41-2.7,2.11,4.9-18.83,20-29.42,22-30.81l-20,13.08,7.66-17.5a53.54,53.54,0,0,0,13.84-1.58c4.56-1.32,8-5.15,12-11.56-4.92-.09-16.09,1.56-18.59.39-2.8-1.32,13.37-2.18,20.28-3.19,1.17-2,2.41-4.16,3.74-6.55-7.43-.45-17.49-.88-19.3-1.26-3-.62,2.53-1.72,8.12-2.48,3.95-.54,10.7-2.06,15-3.06,1.14-2,2.34-3.91,3.58-5.8-5.37,0-17,1.29-14.09-.21,3.38-1.71,12.38-2.05,16.42-3.21,1.31-1.87,2.64-3.67,4-5.39-5.58.31-15.11.78-15.29.31s15-3.42,18.2-4q1.86-2.28,3.56-4.25a61.74,61.74,0,0,0-8.18-1c-2.11,0,8.07-2.93,13-4.33,1.4-1.49,2.47-2.56,3.06-3.12s.93-1.11.79-1.51a.42.42,0,0,0-.32-.78l-.46.19c-1-.34-3.09-.38-6.49,0-2.35,1.84-10.69,8.28-10.26,7s5.68-4.39,6.73-6.55c-2.07.33-4.46.77-7.24,1.33-3.18,1.88-6.05,7.2-7.37,8.19-1,.75.88-4.22,1.48-6.76-.95.28-1.92.61-2.92,1-2,1.88-4.18,4.39-4.4,6.08-.33,2.63-2.57,9-3.09,6.46-.36-1.77,1-7.62,1.17-10-.72.32-1.44.65-2.17,1a17.48,17.48,0,0,0-4.9,6.18c-3,5.59-2.75,9-3.8,11.39s-1.06-9-1.28-11.91c0-.12,0-.23-.05-.34-2.19,1.29-4.32,2.63-6.37,4-1.35,6.4.72,16.61.08,18.25s-3.85-6.73-4.22-12a5.41,5.41,0,0,0-.8-2.71c-2,1.52-3.86,3.05-5.49,4.54-.61,4.09.34,9.24,2,14.81,1.23,4.13,2,7.54,1.89,8.69l-.31.4a2.4,2.4,0,0,1-.81-.91c-1.77-2.72-5.3-16.28-6.07-19.66-2.47,2.76-4,5.29-4,7.33-.19,6.46,2.49,16.39,4.22,22.09L127.58,340.8l9.07-83-23,91.34-14-45.32,4.6,40.81c-.33-1.13-.71-2.31-1.14-3.56-.91,1.09-2,2.68-3.22,4.42l-1.36-2c1.33-2,2.57-4,3.45-5.49-.81-2.15-1.74-4.48-2.77-7-5,5.52-11.63,13.09-13,14.27-2.38,2,.23-3.05,3.13-7.89,2.06-3.42,5.09-9.64,7-13.59-.82-2.12-1.59-4.27-2.28-6.42-3.33,4.21-9.65,14.1-9,10.86.78-3.71,6.14-10.94,7.76-14.82-.64-2.19-1.21-4.36-1.73-6.46-3.24,4.55-8.84,12.27-9.31,12.13S88.5,305.22,90,302.39c-.42-1.91-.78-3.74-1.09-5.44A61.75,61.75,0,0,0,83,302.7c-1.3,1.66,2.76-8.13,4.74-12.85-.28-2-.44-3.53-.51-4.34s-.29-1.42-.69-1.56a.41.41,0,0,0-.28-.51.42.42,0,0,0-.53.28c-.05.15-.09.31-.14.47-.91.6-2.23,2.18-4,5.07,0,3-.22,13.53-.93,12.42s.13-7.18-.89-9.35c-1,1.81-2.2,4-3.5,6.47-.52,3.66,1.84,9.23,1.78,10.88,0,1.26-2.74-3.32-4.35-5.39-.37.93-.72,1.89-1.07,2.88.23,2.72.81,6,2,7.24,1.85,1.9,5.4,7.62,3.11,6.45-1.61-.83-5.3-5.56-7.07-7.16-.2.76-.4,1.53-.58,2.31a17.61,17.61,0,0,0,1.75,7.69c2.47,5.87,5.31,7.78,6.52,10.09s-7.69-4.81-10.09-6.45l-.3-.17c-.36,2.51-.65,5-.86,7.47,4.15,5.07,13.42,9.83,14.3,11.36s-7.66-1.21-12-4.23a5.39,5.39,0,0,0-2.61-1.07c-.07,2.52,0,4.92.1,7.13,2.81,3,7.43,5.5,12.81,7.7,6.24,2.55,10.44,4.87,6.86,4.52-3.23-.32-16-6.05-19.14-7.56.61,3.64,1.66,6.38,3.21,7.71,6.2,5.27,19.51,10.44,23.23,11.82l.4.82,2,25.83L78.08,384.73l23,41.13-6.65-.41c.14-.69.25-1.37.32-2,.38-3.63-1.35-7.2-4.76-11.92-1.49,3.48-3.56,11.91-5.12,13.36l-.41,0c-.29-1.4,2.91-10.83,4-15.35-1.07-1.42-2.27-2.93-3.59-4.57-2.47,5.16-5.71,12.21-6.5,13.39-1.32,2-.5-2.3.59-6.51.76-3,1.64-8.23,2.17-11.56-1.08-1.39-2.11-2.81-3.1-4.24-1.53,3.84-4,12.52-4.24,10-.24-2.9,2.13-9.42,2.48-12.64-1-1.48-1.85-2.95-2.69-4.38-1.4,4.07-3.84,11-4.22,11s1.93-11.72,2.43-14.14c-.72-1.33-1.39-2.59-2-3.78a47.51,47.51,0,0,0-3.1,5.54c-.6,1.51.25-6.61.68-10.53-.65-1.43-1.1-2.5-1.33-3.09s-.53-1-.85-1a.34.34,0,0,0-.32-.32.33.33,0,0,0-.33.33c0,.12,0,.25,0,.37A14.09,14.09,0,0,0,62.72,378c.63,2.21,2.8,10,2,9.36s-1.48-5.32-2.71-6.7c-.37,1.57-.76,3.4-1.16,5.54.41,2.82,3.37,6.41,3.69,7.65.25.93-2.75-1.86-4.39-3-.07.76-.12,1.55-.16,2.36.77,2,1.92,4.26,3.06,4.9,1.78,1,5.65,4.45,3.71,4.09-1.37-.26-5.14-2.95-6.79-3.74,0,.61,0,1.22.08,1.83a13.6,13.6,0,0,0,3,5.3c3.1,3.79,5.62,4.57,7,6s-6.73-1.87-8.87-2.55a1.14,1.14,0,0,0-.25-.06c.28,1.93.62,3.84,1,5.7,4.17,2.83,12.06,4.32,13,5.25s-5.91.79-9.8-.48a4.14,4.14,0,0,0-2.16-.23c.5,1.88,1,3.64,1.64,5.24,2.73,1.62,6.68,2.44,11.13,2.88,5.18.52,8.78,1.31,6.06,1.83-2.45.48-13.15-.95-15.79-1.38,1.25,2.56,2.63,4.35,4.07,5,5.73,2.54,16.69,3.44,19.74,3.64.78.87,1.51,1.63,2.15,2.29l-7,1.17L96.9,455.14h16.51l70.77-.49,8.24-6.49-16.73-2.79-9.06,3.49.69-7-10.45,7.67V438.41L148.5,444l2.09-9.76-14.64,7,11.33-24.34a46.93,46.93,0,0,0,5.5-1.19c6.16-1.78,10.81-7,16.23-15.63-3.44-.06-9.13.51-14.3.85l.06-.13-.16.14c-4.79.31-9.11.43-10.72-.33-3.79-1.78,18.06-2.95,27.41-4.31,1.58-2.68,3.24-5.63,5-8.86-10-.6-23.64-1.19-26.09-1.7-4.08-.84,3.42-2.33,11-3.36,5.34-.73,14.47-2.78,20.24-4.13,1.53-2.66,3.16-5.29,4.84-7.84-7.26.05-23,1.74-19-.28,4.57-2.32,16.73-2.78,22.19-4.35,1.77-2.52,3.57-5,5.35-7.28-7.54.42-20.42,1.05-20.67.43-.31-.8,20.33-4.63,24.61-5.42,1.67-2.05,3.28-4,4.81-5.75a85.54,85.54,0,0,0-11.06-1.36c-2.84,0,10.91-4,17.57-5.86,1.89-2,3.34-3.46,4.14-4.22s1.26-1.5,1.07-2A.56.56,0,0,0,215.58,333.51Zm-122.74,105c-.62-.63-1.32-1.36-2.09-2.2l.14-.31,2.53,2.41Zm-1-82.66c-1.72.85,1.23-3.87,4.58-9l.54,3C94.93,352.74,93,355.27,91.83,355.85Zm3.72,15.68c.92-1.07,2.58-3.08,4.31-5.52l2.62,14.53S98,373.94,95.55,371.53Zm28.55,39s.51-1.6,1.34-4.36L126,408Zm10.06-13.6a96.1,96.1,0,0,1-3.41-10c.49-2,1-4,1.48-6q.69,3.21,1.71,6.61c.8,2.7,1.45,5.18,1.9,7.19Z" style="fill:#263238"></path><path d="M158,332.6l.25-.17Z" style="fill:#263238"></path><path d="M332.56,341.84a1.68,1.68,0,0,0,.21-.3C332.83,341.42,332.74,341.54,332.56,341.84Z" style="fill:#263238"></path><path d="M344.26,347.43l-2.29,1.8c-2.29,1.8-3.93,3.11-3.93,3.11a16.67,16.67,0,0,1,1.31-3.44c.8-1.58,3.3-5.83,4-7.06a68.3,68.3,0,0,0-4.7,5.43c-2.13,2.94-3.27,4.9-3.27,4.9a49.75,49.75,0,0,0,1.63-6.54c.33-2.45,3.11-8.5,3.11-8.5s-3.6,5.39-4.74,8.5c-.8,2.17-1.68,4.74-2.14,6.09l-.4.11-.33-3.35.86-1.05-.9.71-.53-5.35c.23-.4.43-.73.57-1-.14.18-.35.4-.6.67l-.29-2.93s-.15,1.52-.41,3.67a39.31,39.31,0,0,0-3.4,4l-.45.62a15.05,15.05,0,0,0-1.26-1.79c0-.16.05-.32.07-.47.33-2.45,3.11-8.5,3.11-8.5a65.63,65.63,0,0,0-4.37,7.61,12.43,12.43,0,0,0-1-.91s.3.6.72,1.51c0,.1-.08.2-.11.29-.5,1.35-1,2.85-1.46,4.12l-1.28-.85,1.13,1.26-.84,2.5-1.31-13.08s-.33,3.27-.82,7a26.83,26.83,0,0,0,0,6.87l-2.78-4.41a17.31,17.31,0,0,0-4.09-5.24s1.64,3.27,2.78,6.38a10.4,10.4,0,0,0,1.32,2.84L311,348.9l5.73,6.38H342l2.29-3.6L339.68,353Zm-13.53,5-.45.13-.48-.76.84-1Q330.67,351.79,330.73,352.45Zm.42-8.24c-.09.75-.19,1.57-.3,2.4a25.72,25.72,0,0,0-.21,3l-1.49,1.17-.87-1.39c.07-.17.15-.33.23-.5C329,347.91,330.16,345.89,331.15,344.21Zm-3.95,8.13s.05-.22.17-.6c.05.13.1.24.15.34Zm-1.4-4.53c.21.49.42,1,.62,1.51-.5.74-.9,1.36-1.2,1.83L325,351C325.2,350.13,325.53,349,325.8,347.81Zm-1.21,4.36.05-.16,0,0Zm8.36.25.23-.36c-.13.38-.2.6-.2.6Z" style="fill:#263238"></path><path d="M343.4,341.84a1.18,1.18,0,0,0,.2-.3C343.67,341.42,343.58,341.54,343.4,341.84Z" style="fill:#263238"></path><path d="M221.46,338c.06-.15.11-.28.14-.37S221.58,337.65,221.46,338Z" style="fill:#263238"></path><path d="M229.82,345.2l-1.64,2.31c-1.63,2.31-2.8,4-2.8,4a33.35,33.35,0,0,1,.93-4.41c.57-2,2.36-7.49,2.9-9.07-.5,1.12-2,3.64-3.37,7-1.52,3.78-2.34,6.3-2.34,6.3s.94-5.25,1.17-8.4A100.43,100.43,0,0,1,226.9,332a100.92,100.92,0,0,0-3.4,10.91c-.57,2.79-1.2,6.08-1.52,7.82l-.29.15-.24-4.31.62-1.35-.64.91-.39-6.86c.17-.51.32-.94.42-1.23-.11.23-.26.53-.44.87l-.21-3.76s-.1,1.94-.28,4.71a55.24,55.24,0,0,0-2.44,5.15c-.11.28-.22.54-.32.8a24.68,24.68,0,0,0-.9-2.3c0-.21,0-.4,0-.6A98.63,98.63,0,0,1,219.14,332s-2.13,5.73-3.13,9.77a13,13,0,0,0-.7-1.16s.22.76.52,1.93c0,.13-.06.26-.08.37-.36,1.74-.73,3.66-1.05,5.29l-.91-1.09.81,1.62c-.35,1.86-.61,3.21-.61,3.21l-.93-16.79s-.24,4.2-.59,9a61.68,61.68,0,0,0,0,8.82l-2-5.67a24,24,0,0,0-2.92-6.71s1.17,4.19,2,8.18a19.55,19.55,0,0,0,.94,3.65L206,347.09l4.09,8.19h18.05l1.64-4.62-3.27,1.68Zm-9.67,6.45-.33.16-.34-1,.6-1.31C220.09,350.37,220.12,351.09,220.15,351.65Zm.29-10.59c-.06,1-.13,2-.21,3.09-.1,1.38-.14,2.69-.15,3.86l-1.06,1.5-.63-1.78c.05-.21.11-.42.17-.64C218.91,345.82,219.74,343.23,220.44,341.06Zm-2.82,10.44s0-.28.12-.76c0,.16.07.3.11.44Zm-1-5.81c.15.63.3,1.28.44,1.94-.36.95-.64,1.74-.86,2.34l-.19-.22C216.19,348.67,216.42,347.17,216.62,345.69Zm-.87,5.6s0-.08,0-.21l0,0Zm6,.32.16-.46c-.09.48-.14.77-.14.77Z" style="fill:#263238"></path><path d="M229.21,338a2,2,0,0,0,.14-.37C229.4,337.49,229.34,337.65,229.21,338Z" style="fill:#263238"></path><path d="M354.43,347.18a.69.69,0,0,0,.12-.18C354.59,346.92,354.54,347,354.43,347.18Z" style="fill:#263238"></path><path d="M361.48,350.55l-1.38,1.08-2.36,1.88a9.42,9.42,0,0,1,.79-2.07c.47-1,2-3.52,2.44-4.26a39.1,39.1,0,0,0-2.84,3.27c-1.28,1.77-2,3-2,3a30.88,30.88,0,0,0,1-4,29.26,29.26,0,0,1,1.87-5.12,34.75,34.75,0,0,0-2.86,5.12c-.48,1.31-1,2.86-1.29,3.67l-.24.07-.2-2,.52-.63-.54.42-.32-3.22.34-.57c-.08.1-.21.24-.36.4l-.18-1.76s-.09.91-.24,2.21a22.58,22.58,0,0,0-2,2.42l-.27.37a12.62,12.62,0,0,0-.76-1.08,2.7,2.7,0,0,0,0-.28,30.12,30.12,0,0,1,1.87-5.12,39.57,39.57,0,0,0-2.63,4.59,6.89,6.89,0,0,0-.59-.55s.18.36.44.91c0,.06-.05.12-.07.17-.3.82-.62,1.72-.89,2.49l-.76-.51.68.75-.51,1.51-.79-7.88s-.2,2-.49,4.24a15.93,15.93,0,0,0,0,4.14l-1.68-2.67a10.4,10.4,0,0,0-2.46-3.15s1,2,1.67,3.84a6.82,6.82,0,0,0,.79,1.72l-3.75-2.5,3.45,3.84H360.1l1.38-2.17-2.76.79Zm-8.15,3-.27.08-.29-.46.5-.61C353.29,353,353.31,353.31,353.33,353.57Zm.25-5c-.05.46-.11.95-.18,1.46a17.31,17.31,0,0,0-.13,1.81l-.89.7-.53-.84c0-.09.09-.19.14-.29C352.29,350.84,353,349.62,353.58,348.6Zm-2.38,4.91s0-.14.1-.36c0,.07.07.14.09.2Zm-.84-2.74c.12.3.25.61.37.92-.3.44-.54.81-.72,1.1l-.16-.11C350,352.18,350.19,351.47,350.36,350.77Zm-.73,2.64,0-.1v0Zm5,.15.13-.22c-.07.23-.12.36-.12.36Z" style="fill:#263238"></path><path d="M361,347.18a1.11,1.11,0,0,0,.12-.18C361.13,346.92,361.08,347,361,347.18Z" style="fill:#263238"></path><path d="M396.88,347.18A.69.69,0,0,0,397,347C397,346.92,397,347,396.88,347.18Z" style="fill:#263238"></path><path d="M403.93,350.55l-1.38,1.08-2.37,1.88a10.1,10.1,0,0,1,.79-2.07c.48-1,2-3.52,2.44-4.26a39.54,39.54,0,0,0-2.83,3.27c-1.28,1.77-2,3-2,3a29.75,29.75,0,0,0,1-4,29.92,29.92,0,0,1,1.88-5.12,34.75,34.75,0,0,0-2.86,5.12c-.49,1.31-1,2.86-1.29,3.67l-.24.07-.2-2,.52-.63-.55.42-.32-3.22c.14-.24.27-.44.35-.57l-.36.4-.18-1.76s-.09.91-.24,2.21a23.75,23.75,0,0,0-2.06,2.42l-.26.37a12.62,12.62,0,0,0-.76-1.08c0-.09,0-.19,0-.28a30.12,30.12,0,0,1,1.87-5.12,40.63,40.63,0,0,0-2.64,4.59,6.14,6.14,0,0,0-.58-.55l.43.91c0,.06-.05.12-.07.17-.3.82-.62,1.72-.88,2.49l-.77-.51.69.75-.52,1.51-.79-7.88s-.19,2-.49,4.24a16.47,16.47,0,0,0,0,4.14l-1.67-2.67a10.34,10.34,0,0,0-2.47-3.15s1,2,1.68,3.84a6.08,6.08,0,0,0,.79,1.72l-3.75-2.5,3.45,3.84h15.21l1.38-2.17-2.76.79Zm-8.15,3-.28.08-.28-.46.5-.61C395.73,353,395.75,353.31,395.78,353.57Zm.25-5c-.06.46-.12.95-.18,1.46a15,15,0,0,0-.13,1.81l-.9.7-.52-.84.14-.29C394.74,350.84,395.43,349.62,396,348.6Zm-2.38,4.91s0-.14.1-.36l.09.2Zm-.85-2.74c.13.3.26.61.38.92-.3.44-.55.81-.73,1.1l-.16-.11C392.44,352.18,392.64,351.47,392.8,350.77Zm-.73,2.64,0-.1,0,0Zm5,.15.14-.22-.12.36Z" style="fill:#263238"></path><path d="M403.41,347.18a1.29,1.29,0,0,0,.13-.18C403.57,346.92,403.52,347,403.41,347.18Z" style="fill:#263238"></path><path d="M379.23,347.18a1.29,1.29,0,0,0,.13-.18C379.39,346.92,379.34,347,379.23,347.18Z" style="fill:#263238"></path><path d="M386.28,350.55l-1.38,1.08-2.36,1.88a10.1,10.1,0,0,1,.79-2.07c.48-1,2-3.52,2.44-4.26a39.1,39.1,0,0,0-2.84,3.27c-1.28,1.77-2,3-2,3a30.88,30.88,0,0,0,1-4,29.26,29.26,0,0,1,1.87-5.12,34.75,34.75,0,0,0-2.86,5.12c-.48,1.31-1,2.86-1.29,3.67l-.24.07-.2-2,.52-.63-.54.42-.32-3.22.34-.57c-.08.1-.21.24-.36.4l-.18-1.76s-.09.91-.24,2.21a23.8,23.8,0,0,0-2.05,2.42l-.27.37a12.62,12.62,0,0,0-.76-1.08,2.7,2.7,0,0,0,0-.28,29.92,29.92,0,0,1,1.88-5.12,39,39,0,0,0-2.64,4.59,6.89,6.89,0,0,0-.59-.55s.18.36.44.91c0,.06-.05.12-.07.17-.3.82-.62,1.72-.88,2.49l-.77-.51.68.75L373,353.7l-.79-7.88s-.2,2-.49,4.24a15.93,15.93,0,0,0,0,4.14L370,351.53a10.4,10.4,0,0,0-2.46-3.15s1,2,1.67,3.84a6.82,6.82,0,0,0,.79,1.72l-3.75-2.5,3.45,3.84H384.9l1.38-2.17-2.76.79Zm-8.15,3-.27.08-.29-.46.51-.61C378.09,353,378.11,353.31,378.13,353.57Zm.25-5c-.05.46-.11.95-.18,1.46a17.31,17.31,0,0,0-.13,1.81l-.89.7-.53-.84c.05-.09.09-.19.14-.29C377.09,350.84,377.79,349.62,378.38,348.6ZM376,353.51s0-.14.1-.36a1.13,1.13,0,0,1,.09.2Zm-.84-2.74c.12.3.25.61.37.92-.3.44-.54.81-.72,1.1l-.16-.11C374.8,352.18,375,351.47,375.16,350.77Zm-.73,2.64,0-.1,0,0A.3.3,0,0,0,374.43,353.41Zm5,.15.13-.22c-.07.23-.12.36-.12.36Z" style="fill:#263238"></path><path d="M385.77,347.18a1.11,1.11,0,0,0,.12-.18C385.93,346.92,385.88,347,385.77,347.18Z" style="fill:#263238"></path><path d="M252,347.18l.12-.18C252.19,346.92,252.14,347,252,347.18Z" style="fill:#263238"></path><path d="M259.09,350.55l-1.38,1.08-2.37,1.88a10.1,10.1,0,0,1,.79-2.07c.48-1,2-3.52,2.44-4.26a39.1,39.1,0,0,0-2.84,3.27c-1.28,1.77-2,3-2,3a30.88,30.88,0,0,0,1-4,29.26,29.26,0,0,1,1.87-5.12,34.75,34.75,0,0,0-2.86,5.12c-.48,1.31-1,2.86-1.28,3.67l-.25.07-.2-2,.52-.63L252,351l-.32-3.22c.14-.24.26-.44.35-.57l-.37.4-.18-1.76s-.09.91-.24,2.21a23.8,23.8,0,0,0-2.05,2.42l-.27.37a12.62,12.62,0,0,0-.76-1.08,2.7,2.7,0,0,0,0-.28,29.92,29.92,0,0,1,1.88-5.12,39,39,0,0,0-2.64,4.59,6.89,6.89,0,0,0-.59-.55s.18.36.44.91c0,.06-.05.12-.07.17-.3.82-.62,1.72-.88,2.49l-.77-.51.68.75-.51,1.51-.79-7.88s-.2,2-.49,4.24a15.93,15.93,0,0,0,0,4.14l-1.68-2.67a10.23,10.23,0,0,0-2.46-3.15s1,2,1.67,3.84a6.25,6.25,0,0,0,.8,1.72l-3.75-2.5,3.45,3.84h15.21l1.38-2.17-2.76.79Zm-8.16,3-.27.08-.29-.46.51-.61C250.89,353,250.91,353.31,250.93,353.57Zm.25-5c-.05.46-.11.95-.18,1.46a17.31,17.31,0,0,0-.13,1.81l-.89.7-.53-.84c.05-.09.09-.19.14-.29C249.89,350.84,250.59,349.62,251.18,348.6Zm-2.38,4.91s0-.14.1-.36l.1.2Zm-.84-2.74c.12.3.25.61.37.92-.3.44-.54.81-.72,1.1l-.16-.11C247.6,352.18,247.8,351.47,248,350.77Zm-.73,2.64,0-.1,0,0Zm5,.15.13-.22c-.07.23-.12.36-.12.36Z" style="fill:#263238"></path><path d="M258.57,347.18a.69.69,0,0,0,.12-.18C258.73,346.92,258.68,347,258.57,347.18Z" style="fill:#263238"></path></g><g id="freepik--Ground--inject-54"><path d="M709.9,345.72l-2.34,25.89a90.83,90.83,0,0,1-90.47,82.68H322.25c28.05-3.78,65.54-11.59,83.3-27.07,27.42-23.9,32.34-46.4,33.74-48.51s5.63-10.55,5.63-10.55l-6.33,4.22v-4.92l2.11-7.74-8.44,2.82-2.11-8.44-2.46,2.46-3.86,3.87s-2.11-5.63-2.11-9.14,3.51-7.74,3.51-7.74l-12,2.82s3-3.27,6.65-6.8a82.08,82.08,0,0,1,7.41-6.56C433,328.79,452,331.6,452,331.6H709.5C709.9,340.54,709.9,345.72,709.9,345.72Z" style="fill:#b2b2b2;stroke:#263238;stroke-linecap:round;stroke-linejoin:round"></path><polygon points="452.63 370.2 444.99 398.11 461.89 380.79 464.54 395.35 478.44 380.13 505.57 362.92 512.85 367.56 517.57 354.35 550.61 349.63 559.83 344.39 460.57 353.66 452.63 370.2" style="fill:#263238"></polygon><path d="M710.25,353.34c-.19,2.79-.36,4.93-.41,5.62-2.13,28.93-13.72,58-37,76.23-1.73,1.36-3.52,2.65-5.35,3.87a91.14,91.14,0,0,1-50.36,15.23H420l4.69-3.61,15.3-13.6,13.61-14.88s11.9-7.23,11.9-5.53S466,443,466,443l17.44-20.41,9.35-38.26,14.88-15.3v12.32l6.8-5.1,11.9-8.93,17.44-7.22-6,9.78,25.39-15.56,6.16-9.29,7.14-5.34,27-8.12h106C711.43,331.91,710.79,345.33,710.25,353.34Z" style="fill:#263238"></path><path d="M539.59,351.2l11-1.57,18.75-4.57-6.16,9.29S580.32,343,585.8,341a144.79,144.79,0,0,1,14.39-4.12l8.23-3.42,13.68-1.81H452s-19-2.81-24.61,1.41a82.12,82.12,0,0,0-7.42,6.56c-3.63,3.53-6.64,6.8-6.64,6.8l12-2.82s-3.52,4.22-3.52,7.74,2.11,9.14,2.11,9.14l3.87-3.87,2.46-2.46,2.11,8.44,8.44-2.81-2.11,7.73v4.92l6.32-4.22,2.64,11.36,10.22-7.86h15.74l-2.36,5.5,18.88-5.5,6.29-2.36L509.59,360l8-5.61,2.36,7.87,11-7.87Z" style="fill:#8494B4;stroke:#263238;stroke-linecap:round;stroke-linejoin:round"></path><polygon points="389.33 454.29 402.34 448.29 411.74 437.58 407.63 441.01 403.39 443.13 395.72 446.96 394.57 447.14 390.7 447.74 378.51 449.61 368.12 454.29 389.33 454.29" style="fill:#263238"></polygon></g><g id="freepik--Fishes--inject-54"><path d="M366.44,375.87s1.17-3.75,2-4.55,1.78-1.41,2.76-.62,2,2.77,4.67,4.86a31.06,31.06,0,0,0,4.55,3.07l-3.07.12Z" style="fill:#fff;stroke:#263238;stroke-linecap:round;stroke-linejoin:round;stroke-width:0.75px"></path><path d="M366.31,390.43s3,3.32,3.75,4.18,1.23,2.34,1.48,1.11.74-2.58.18-3.45-4.18-1.72-4.3-1.9" style="fill:#fff;stroke:#263238;stroke-linecap:round;stroke-linejoin:round;stroke-width:0.75px"></path><path d="M376.76,389.39s1-.68,2.4.49,3.5,3.44,3.87,3.13a7.54,7.54,0,0,0,.68-2.39l-.62-.86.92.24-.06-1.29-1-.55,1.1-.06s-2.39-.74-2.64-.86a6.45,6.45,0,0,0-1.23-.25" style="fill:#fff;stroke:#263238;stroke-linecap:round;stroke-linejoin:round;stroke-width:0.75px"></path><path d="M367.73,376.05a20.37,20.37,0,0,1,1.17-2.58" style="fill:none;stroke:#263238;stroke-linecap:round;stroke-linejoin:round;stroke-width:0.5px"></path><path d="M371.21,374.35a7.53,7.53,0,0,0,.7-.82" style="fill:none;stroke:#263238;stroke-linecap:round;stroke-linejoin:round;stroke-width:0.5px"></path><path d="M369,376.48s.76-.66,1.54-1.41" style="fill:none;stroke:#263238;stroke-linecap:round;stroke-linejoin:round;stroke-width:0.5px"></path><line x1="371.42" y1="377.03" x2="373.5" y2="376.05" style="fill:none;stroke:#263238;stroke-linecap:round;stroke-linejoin:round;stroke-width:0.5px"></line><line x1="377.62" y1="377.03" x2="375.96" y2="377.71" style="fill:none;stroke:#263238;stroke-linecap:round;stroke-linejoin:round;stroke-width:0.5px"></line><path d="M378.79,388.65a20.58,20.58,0,0,1,3.75,2.64" style="fill:none;stroke:#263238;stroke-linecap:round;stroke-linejoin:round;stroke-width:0.5px"></path><path d="M380.33,388.65a15.16,15.16,0,0,1,1.66,1.23" style="fill:none;stroke:#263238;stroke-linecap:round;stroke-linejoin:round;stroke-width:0.5px"></path><line x1="381.99" y1="388.4" x2="382.72" y2="388.71" style="fill:none;stroke:#263238;stroke-linecap:round;stroke-linejoin:round;stroke-width:0.5px"></line><line x1="367.36" y1="390.92" x2="369.63" y2="393.38" style="fill:none;stroke:#263238;stroke-linecap:round;stroke-linejoin:round;stroke-width:0.5px"></line><line x1="371.78" y1="394.49" x2="370.19" y2="392.64" style="fill:none;stroke:#263238;stroke-linecap:round;stroke-linejoin:round;stroke-width:0.5px"></line><line x1="371.66" y1="393.26" x2="371.05" y2="392.64" style="fill:none;stroke:#263238;stroke-linecap:round;stroke-linejoin:round;stroke-width:0.5px"></line><path d="M366.44,375.87s-5.59,1.23-7.38,2.15-4.24,3.32-5,3.87-3.87,2.52-4.36,3.32.06,1.17.06,1.17a4,4,0,0,1,.8.49,6.22,6.22,0,0,0,2.52,1.41,45,45,0,0,0,8.42,2.4,34.43,34.43,0,0,0,8.36.24c2.89-.3,7.13-.86,8.85-1.84s3.56-2,3.56-2a22.37,22.37,0,0,1,4.61-.37,43.37,43.37,0,0,1,6,3.57c1.54,1,2.95,1.84,2.89,1s-2.34-5.22-2.15-6.82,2.4-6.39,2.09-7.5-.49-.67-1.91-.06-5.16,3.57-6.45,3.93-2.27,1.17-6.33-.49S369.51,375.87,366.44,375.87Z" style="fill:#fff;stroke:#263238;stroke-linecap:round;stroke-linejoin:round;stroke-width:0.75px"></path><path d="M353.53,384.84a1.11,1.11,0,1,0-1.1,1.1A1.11,1.11,0,0,0,353.53,384.84Z" style="fill:none;stroke:#263238;stroke-linecap:round;stroke-linejoin:round;stroke-width:0.75px"></path><path d="M352.93,384.84a.5.5,0,0,0-.5-.5.5.5,0,0,0-.5.5.5.5,0,0,0,.5.5A.51.51,0,0,0,352.93,384.84Z" style="fill:#263238;stroke:#263238;stroke-linecap:round;stroke-linejoin:round;stroke-width:0.75px"></path><path d="M354.64,382.32s1.84,3.93.06,5.53" style="fill:none;stroke:#263238;stroke-linecap:round;stroke-linejoin:round;stroke-width:0.5px"></path><path d="M359,388a3.68,3.68,0,0,1-1.83.81" style="fill:none;stroke:#263238;stroke-linecap:round;stroke-linejoin:round;stroke-width:0.5px"></path><path d="M358,381.46a3.82,3.82,0,0,1,2.21,4.05,4.31,4.31,0,0,1-.4,1.39" style="fill:none;stroke:#263238;stroke-linecap:round;stroke-linejoin:round;stroke-width:0.5px"></path><line x1="388.44" y1="382.32" x2="394.52" y2="379.12" style="fill:none;stroke:#263238;stroke-linecap:round;stroke-linejoin:round;stroke-width:0.5px"></line><line x1="388.68" y1="383.12" x2="391.94" y2="381.7" style="fill:none;stroke:#263238;stroke-linecap:round;stroke-linejoin:round;stroke-width:0.5px"></line><line x1="391.42" y1="384.58" x2="392.25" y2="384.65" style="fill:none;stroke:#263238;stroke-linecap:round;stroke-linejoin:round;stroke-width:0.5px"></line><line x1="387.89" y1="384.29" x2="389.86" y2="384.45" style="fill:none;stroke:#263238;stroke-linecap:round;stroke-linejoin:round;stroke-width:0.5px"></line><line x1="388.5" y1="385.27" x2="393.05" y2="386.62" style="fill:none;stroke:#263238;stroke-linecap:round;stroke-linejoin:round;stroke-width:0.5px"></line><line x1="394.89" y1="390.55" x2="388.87" y2="387.05" style="fill:none;stroke:#263238;stroke-linecap:round;stroke-linejoin:round;stroke-width:0.5px"></line><path d="M388.38,381.52s5.83-3.44,7.06-4" style="fill:none;stroke:#263238;stroke-linecap:round;stroke-linejoin:round;stroke-width:0.5px"></path><line x1="394.65" y1="388.77" x2="391.94" y2="387.54" style="fill:none;stroke:#263238;stroke-linecap:round;stroke-linejoin:round;stroke-width:0.5px"></line><path d="M205,370.34s.86-2.74,1.49-3.32,1.3-1,2-.45,1.48,2,3.41,3.55a23.43,23.43,0,0,0,3.33,2.25l-2.25.09Z" style="fill:#fff;stroke:#263238;stroke-linecap:round;stroke-linejoin:round;stroke-width:0.75px"></path><path d="M205,381s2.21,2.43,2.75,3.06.89,1.71,1.07.81.54-1.89.14-2.52-3.06-1.26-3.15-1.39" style="fill:#fff;stroke:#263238;stroke-linecap:round;stroke-linejoin:round;stroke-width:0.75px"></path><path d="M212.59,380.23s.72-.5,1.76.36,2.56,2.51,2.83,2.29a5.45,5.45,0,0,0,.49-1.75l-.45-.63.68.18-.05-.95-.72-.4.81,0s-1.75-.54-1.93-.63a5.18,5.18,0,0,0-.9-.18" style="fill:#fff;stroke:#263238;stroke-linecap:round;stroke-linejoin:round;stroke-width:0.75px"></path><path d="M206,370.48a15.71,15.71,0,0,1,.85-1.89" style="fill:none;stroke:#263238;stroke-linecap:round;stroke-linejoin:round;stroke-width:0.5px"></path><path d="M208.53,369.24a5.67,5.67,0,0,0,.51-.6" style="fill:none;stroke:#263238;stroke-linecap:round;stroke-linejoin:round;stroke-width:0.5px"></path><path d="M206.89,370.79s.56-.48,1.13-1" style="fill:none;stroke:#263238;stroke-linecap:round;stroke-linejoin:round;stroke-width:0.5px"></path><line x1="208.68" y1="371.2" x2="210.21" y2="370.48" style="fill:none;stroke:#263238;stroke-linecap:round;stroke-linejoin:round;stroke-width:0.5px"></line><line x1="213.22" y1="371.2" x2="212.01" y2="371.69" style="fill:none;stroke:#263238;stroke-linecap:round;stroke-linejoin:round;stroke-width:0.5px"></line><path d="M214.08,379.69a15.49,15.49,0,0,1,2.74,1.93" style="fill:none;stroke:#263238;stroke-linecap:round;stroke-linejoin:round;stroke-width:0.5px"></path><path d="M215.2,379.69a10.07,10.07,0,0,1,1.21.9" style="fill:none;stroke:#263238;stroke-linecap:round;stroke-linejoin:round;stroke-width:0.5px"></path><line x1="216.41" y1="379.51" x2="216.95" y2="379.73" style="fill:none;stroke:#263238;stroke-linecap:round;stroke-linejoin:round;stroke-width:0.5px"></line><line x1="205.72" y1="381.35" x2="207.38" y2="383.15" style="fill:none;stroke:#263238;stroke-linecap:round;stroke-linejoin:round;stroke-width:0.5px"></line><line x1="208.95" y1="383.96" x2="207.79" y2="382.61" style="fill:none;stroke:#263238;stroke-linecap:round;stroke-linejoin:round;stroke-width:0.5px"></line><line x1="208.86" y1="383.06" x2="208.41" y2="382.61" style="fill:none;stroke:#263238;stroke-linecap:round;stroke-linejoin:round;stroke-width:0.5px"></line><path d="M205,370.34a35.7,35.7,0,0,0-5.39,1.58,30.47,30.47,0,0,0-3.68,2.83,19,19,0,0,0-3.19,2.42c-.36.59,0,.86,0,.86a2.65,2.65,0,0,1,.59.36,4.46,4.46,0,0,0,1.84,1,33.14,33.14,0,0,0,6.16,1.75,25,25,0,0,0,6.11.18c2.11-.22,5.21-.63,6.47-1.35s2.6-1.43,2.6-1.43a16.06,16.06,0,0,1,3.37-.27,31.23,31.23,0,0,1,4.36,2.6c1.12.77,2.16,1.35,2.11.72s-1.7-3.82-1.57-5,1.75-4.67,1.53-5.48-.36-.49-1.4,0-3.77,2.6-4.71,2.87-1.67.86-4.63-.36S207.29,370.34,205,370.34Z" style="fill:#fff;stroke:#263238;stroke-linecap:round;stroke-linejoin:round;stroke-width:0.75px"></path><circle cx="194.8" cy="376.9" r="0.81" style="fill:none;stroke:#263238;stroke-linecap:round;stroke-linejoin:round;stroke-width:0.75px"></circle><circle cx="194.8" cy="376.9" r="0.37" style="fill:#263238;stroke:#263238;stroke-linecap:round;stroke-linejoin:round;stroke-width:0.75px"></circle><path d="M196.42,375.06s1.35,2.88,0,4.05" style="fill:none;stroke:#263238;stroke-linecap:round;stroke-linejoin:round;stroke-width:0.5px"></path><path d="M199.6,379.19a2.64,2.64,0,0,1-1.34.59" style="fill:none;stroke:#263238;stroke-linecap:round;stroke-linejoin:round;stroke-width:0.5px"></path><path d="M198.89,374.43a2.81,2.81,0,0,1,1.62,3,3.08,3.08,0,0,1-.3,1" style="fill:none;stroke:#263238;stroke-linecap:round;stroke-linejoin:round;stroke-width:0.5px"></path><line x1="221.13" y1="375.06" x2="225.58" y2="372.73" style="fill:none;stroke:#263238;stroke-linecap:round;stroke-linejoin:round;stroke-width:0.5px"></line><line x1="221.31" y1="375.65" x2="223.69" y2="374.61" style="fill:none;stroke:#263238;stroke-linecap:round;stroke-linejoin:round;stroke-width:0.5px"></line><line x1="223.31" y1="376.72" x2="223.92" y2="376.77" style="fill:none;stroke:#263238;stroke-linecap:round;stroke-linejoin:round;stroke-width:0.5px"></line><line x1="220.73" y1="376.5" x2="222.17" y2="376.62" style="fill:none;stroke:#263238;stroke-linecap:round;stroke-linejoin:round;stroke-width:0.5px"></line><line x1="221.18" y1="377.22" x2="224.5" y2="378.21" style="fill:none;stroke:#263238;stroke-linecap:round;stroke-linejoin:round;stroke-width:0.5px"></line><line x1="225.85" y1="381.08" x2="221.44" y2="378.52" style="fill:none;stroke:#263238;stroke-linecap:round;stroke-linejoin:round;stroke-width:0.5px"></line><path d="M221.09,374.48s4.26-2.52,5.16-2.92" style="fill:none;stroke:#263238;stroke-linecap:round;stroke-linejoin:round;stroke-width:0.5px"></path><line x1="225.67" y1="379.78" x2="223.69" y2="378.88" style="fill:none;stroke:#263238;stroke-linecap:round;stroke-linejoin:round;stroke-width:0.5px"></line><path d="M295.21,398.44s-1-3.17-1.72-3.84-1.51-1.2-2.34-.52-1.71,2.34-3.95,4.1a26,26,0,0,1-3.85,2.6l2.6.11Z" style="fill:#fff;stroke:#263238;stroke-linecap:round;stroke-linejoin:round;stroke-width:0.75px"></path><path d="M295.31,410.76s-2.55,2.81-3.17,3.54-1,2-1.25.93-.62-2.18-.15-2.91,3.53-1.45,3.63-1.61" style="fill:#fff;stroke:#263238;stroke-linecap:round;stroke-linejoin:round;stroke-width:0.75px"></path><path d="M286.47,409.88s-.83-.57-2,.42-3,2.91-3.28,2.65a6.45,6.45,0,0,1-.57-2l.52-.73-.78.21.05-1.09.83-.47-.93,0s2-.62,2.23-.73a6.49,6.49,0,0,1,1-.21" style="fill:#fff;stroke:#263238;stroke-linecap:round;stroke-linejoin:round;stroke-width:0.75px"></path><path d="M294.11,398.6a17.07,17.07,0,0,0-1-2.18" style="fill:none;stroke:#263238;stroke-linecap:round;stroke-linejoin:round;stroke-width:0.5px"></path><path d="M291.17,397.16a6.28,6.28,0,0,1-.59-.69" style="fill:none;stroke:#263238;stroke-linecap:round;stroke-linejoin:round;stroke-width:0.5px"></path><path d="M293.07,399s-.64-.55-1.3-1.19" style="fill:none;stroke:#263238;stroke-linecap:round;stroke-linejoin:round;stroke-width:0.5px"></path><line x1="291" y1="399.43" x2="289.23" y2="398.6" style="fill:none;stroke:#263238;stroke-linecap:round;stroke-linejoin:round;stroke-width:0.5px"></line><line x1="285.75" y1="399.43" x2="287.15" y2="400" style="fill:none;stroke:#263238;stroke-linecap:round;stroke-linejoin:round;stroke-width:0.5px"></line><path d="M284.76,409.26a17.36,17.36,0,0,0-3.17,2.23" style="fill:none;stroke:#263238;stroke-linecap:round;stroke-linejoin:round;stroke-width:0.5px"></path><path d="M283.46,409.26a12.47,12.47,0,0,0-1.41,1" style="fill:none;stroke:#263238;stroke-linecap:round;stroke-linejoin:round;stroke-width:0.5px"></path><line x1="282.05" y1="409.05" x2="281.43" y2="409.31" style="fill:none;stroke:#263238;stroke-linecap:round;stroke-linejoin:round;stroke-width:0.5px"></line><line x1="294.43" y1="411.18" x2="292.5" y2="413.26" style="fill:none;stroke:#263238;stroke-linecap:round;stroke-linejoin:round;stroke-width:0.5px"></line><line x1="290.68" y1="414.19" x2="292.03" y2="412.64" style="fill:none;stroke:#263238;stroke-linecap:round;stroke-linejoin:round;stroke-width:0.5px"></line><line x1="290.79" y1="413.16" x2="291.31" y2="412.64" style="fill:none;stroke:#263238;stroke-linecap:round;stroke-linejoin:round;stroke-width:0.5px"></line><path d="M295.21,398.44a41.29,41.29,0,0,1,6.23,1.82,36.73,36.73,0,0,1,4.27,3.28c.67.47,3.27,2.13,3.69,2.81s-.06,1-.06,1a4.64,4.64,0,0,0-.67.42,5.18,5.18,0,0,1-2.13,1.19,37.39,37.39,0,0,1-7.12,2,29.39,29.39,0,0,1-7.07.21c-2.45-.26-6-.73-7.49-1.56s-3-1.66-3-1.66a18.47,18.47,0,0,0-3.9-.31,35.9,35.9,0,0,0-5,3c-1.3.88-2.5,1.56-2.45.83s2-4.42,1.82-5.77-2-5.4-1.76-6.34.41-.57,1.61-.05,4.36,3,5.45,3.33,1.93,1,5.36-.42S292.61,398.44,295.21,398.44Z" style="fill:#fff;stroke:#263238;stroke-linecap:round;stroke-linejoin:round;stroke-width:0.75px"></path><path d="M306.12,406a.94.94,0,1,1,.94.94A.94.94,0,0,1,306.12,406Z" style="fill:none;stroke:#263238;stroke-linecap:round;stroke-linejoin:round;stroke-width:0.75px"></path><circle cx="307.06" cy="406.03" r="0.42" style="fill:#263238;stroke:#263238;stroke-linecap:round;stroke-linejoin:round;stroke-width:0.75px"></circle><path d="M305.19,403.9s-1.56,3.33-.06,4.68" style="fill:none;stroke:#263238;stroke-linecap:round;stroke-linejoin:round;stroke-width:0.5px"></path><path d="M301.51,408.68a3,3,0,0,0,1.54.68" style="fill:none;stroke:#263238;stroke-linecap:round;stroke-linejoin:round;stroke-width:0.5px"></path><path d="M302.33,403.17a3.45,3.45,0,0,0-1.53,4.61" style="fill:none;stroke:#263238;stroke-linecap:round;stroke-linejoin:round;stroke-width:0.5px"></path><line x1="276.6" y1="403.9" x2="271.45" y2="401.2" style="fill:none;stroke:#263238;stroke-linecap:round;stroke-linejoin:round;stroke-width:0.5px"></line><line x1="276.39" y1="404.58" x2="273.63" y2="403.38" style="fill:none;stroke:#263238;stroke-linecap:round;stroke-linejoin:round;stroke-width:0.5px"></line><line x1="274.08" y1="405.82" x2="273.37" y2="405.88" style="fill:none;stroke:#263238;stroke-linecap:round;stroke-linejoin:round;stroke-width:0.5px"></line><line x1="277.06" y1="405.57" x2="275.39" y2="405.71" style="fill:none;stroke:#263238;stroke-linecap:round;stroke-linejoin:round;stroke-width:0.5px"></line><line x1="276.54" y1="406.4" x2="272.7" y2="407.54" style="fill:none;stroke:#263238;stroke-linecap:round;stroke-linejoin:round;stroke-width:0.5px"></line><line x1="271.14" y1="410.87" x2="276.23" y2="407.91" style="fill:none;stroke:#263238;stroke-linecap:round;stroke-linejoin:round;stroke-width:0.5px"></line><path d="M276.65,403.23s-4.94-2.91-6-3.38" style="fill:none;stroke:#263238;stroke-linecap:round;stroke-linejoin:round;stroke-width:0.5px"></path><line x1="271.35" y1="409.36" x2="273.63" y2="408.32" style="fill:none;stroke:#263238;stroke-linecap:round;stroke-linejoin:round;stroke-width:0.5px"></line></g><g id="freepik--Eagle--inject-54"><path d="M315.79,147.58s1.62,0,7.27-2.75,11.64-3.39,12.93-4,4.69-1,5.66-1.29a10.52,10.52,0,0,1,2.59-.32,4.65,4.65,0,0,1,2.42-1.46,16.11,16.11,0,0,0,3.88-1.13,15.46,15.46,0,0,1,2.1-.64c.49-.17,7.44-4.53,8.25-5a2.92,2.92,0,0,1,1.77-.32s5.34-4.69,5.5-4l.16.65s3.07-3.4,4.2-2.43l1.13,1s1.94-4.36,1.94-1.94-2.74,7.76-2.74,7.76-3.24,8.08-6,9.38a85.12,85.12,0,0,1-13.9,4.68c-5.82,1.46-7.92,1.94-11.48,2.27a54.3,54.3,0,0,0-9.86,1.77c-2.75.81-4.69,1.46-4.69,1.46Z" style="fill:#263238;stroke:#263238;stroke-linecap:round;stroke-linejoin:round"></path><path d="M314,147.39s-5.33-1.3-7.59-1.94-3.07-1.46-3.4-1.94-8.89-10.35-11.63-13.58-11.8-13.58-14.23-15.36-7-7.11-7.27-8.24-2.59-8.08-2.1-11.31.16-6.47-1-3.4-.16,9.06.32,10.67,1,3.88,1,3.88-3.72-1.78-6.14-12-.81-17.78-2.42-14.22-.81,9.21.32,13.25a66.79,66.79,0,0,0,3.55,9.05s-6.3-6.14-8.4-12.61-2.59-13.57-3.39-10.18.8,7.6,2.58,12a52.49,52.49,0,0,0,5.5,9.38s-8.08-7.28-12.12-14.55-2.11-.65-.81,2.91,9.21,11,8.89,11.64S247.91,96,244,91.46s-6.79-7.43-6-4.68,4.69,7,8.89,10.5,6.46,5.82,3.07,4.37-18.26-13.42-14.22-9.22,7.59,7.6,7.59,7.6-4-.49-2.91.65l1.14,1.13s-2.75-.33-1.3,1.29a16.21,16.21,0,0,0,3.4,2.75s-1.3.32-.17,1.29a35.43,35.43,0,0,0,4.85,2.75s-4.2.48-2.42,1.78,4.52,3.07,4.52,3.07-2.26.32-1.13,1.45,2.1,1.94,2.1,1.94-1.61,0-.48,1.29,2.59,2.75,2.59,2.75a1.25,1.25,0,0,0-.33,1.94,13.36,13.36,0,0,0,3.07,2.26s-2.42,1.62-.32,2.91l3.39,2.1s-2.26,1.3,0,2.43a12.51,12.51,0,0,0,3.56,1.29s-1.13,2.26.32,2.75a9.39,9.39,0,0,0,3.24.32s-1.62,1.62-.49,2.59a3.8,3.8,0,0,0,2.26,1,1.72,1.72,0,0,0,1.13,1.94l1.46.64a5.21,5.21,0,0,0,1.45,1.94,3.46,3.46,0,0,0,1.62.49,9.48,9.48,0,0,0,.49,3.23A3.06,3.06,0,0,0,276,151.1s-.16,2.27,1.13,2.91a13.71,13.71,0,0,0,4.37.65l-2.59,1.61s-23.11-1-22.14.33l1,1.29s-4.2,1.62-2.91,2.43a4.74,4.74,0,0,0,2.26.8s-2.58,1.3-1.29,1.78a13.05,13.05,0,0,0,2.26.65s-2.75.81-1.29,1.94a5.49,5.49,0,0,0,3.07,1.13s-1.13,1.29.16,1.29,5-.48,5-.48-.81,1.13,1.46.8a17.84,17.84,0,0,0,4.36-1.29,11.54,11.54,0,0,0,4.36-.64l2.43-.17s6.46.17,12,.17,14.22-1.78,19.23-2.75,8.08-3.23,8.89-4.37,3.4-4.2,3.88-4.68,3.56-.81,4.36-.65,2.27,1.94,2.27,1.94a5.41,5.41,0,0,0,.16-3.39,3.42,3.42,0,0,0-2.1-2.59,8.31,8.31,0,0,0-4.85-2.59A34.25,34.25,0,0,0,314,147.39Z" style="fill:#263238;stroke:#263238;stroke-linecap:round;stroke-linejoin:round"></path><path d="M328.24,155.79a5.41,5.41,0,0,0,.16-3.39,3.42,3.42,0,0,0-2.1-2.59,8.31,8.31,0,0,0-4.85-2.59,34.25,34.25,0,0,0-7.44.17l-3.8-.95-.24.21.49.57h-2.59l.89,1-1.29.24,1.13,1.46-1.3.16.41,1.13-1.7.4.81.65-1.05,1.13a6,6,0,0,1,1.21,0c.24.08-.81,2-.81,2l1.3.17-.49,1h1.21l-.32,1.53,1.21-.08-.16,1.21,2.91-.89-.4,1.05,2.1-.64-.33,1.21,2.27-.57-.49,1.22,1.46-1.22v1.06a6.19,6.19,0,0,0,1.29-1.22c.81-1.13,3.4-4.2,3.88-4.68s3.56-.81,4.36-.65S328.24,155.79,328.24,155.79Z" style="fill:#fff;stroke:#263238;stroke-linecap:round;stroke-linejoin:round"></path><path d="M325.09,150.37c.08.73.08,1-.57,1s-4.77.25-4,1.13,4.45.33,4.93.81a4.29,4.29,0,0,1,.36.47l.12,0c.81.16,2.27,1.94,2.27,1.94a5.41,5.41,0,0,0,.16-3.39,3.42,3.42,0,0,0-2.1-2.59S325,149.65,325.09,150.37Z" style="fill:#fff;stroke:#263238;stroke-linecap:round;stroke-linejoin:round;stroke-width:0.5px"></path><circle cx="321.21" cy="150.21" r="0.73" style="fill:#fff;stroke:#263238;stroke-linecap:round;stroke-linejoin:round;stroke-width:0.5px"></circle><path d="M328.24,155.79s-.49-2.43-1.94-3.07a10.4,10.4,0,0,0-4.2-.33" style="fill:none;stroke:#263238;stroke-linecap:round;stroke-linejoin:round;stroke-width:0.5px"></path><path d="M285.4,165.57a4.34,4.34,0,0,0-.89-.16c-.32,0-.81-.81-.81-.81a8,8,0,0,1-2.42-.33c-.65-.32.32-1.29.32-1.29a17.25,17.25,0,0,1-3.07-.24c-.81-.24.49-1.46.49-1.46a4.62,4.62,0,0,1-1.46-.24c-.56-.24,1.7-2.18,1.7-2.18s-.49-.24-1-.41,3.24-3.79,3.24-3.79l-2.59,1.61s-23.11-1-22.14.33l1,1.29s-4.2,1.62-2.91,2.43a4.74,4.74,0,0,0,2.26.8s-2.58,1.3-1.29,1.78a13.05,13.05,0,0,0,2.26.65s-2.75.81-1.29,1.94a5.49,5.49,0,0,0,3.07,1.13s-1.13,1.29.16,1.29,5-.48,5-.48-.81,1.13,1.46.8a17.84,17.84,0,0,0,4.36-1.29,11.54,11.54,0,0,0,4.36-.64l2.43-.17s4.1.11,8.55.15Z" style="fill:#fff;stroke:#263238;stroke-linecap:round;stroke-linejoin:round;stroke-width:0.5px"></path><path d="M280.07,163.22a3.15,3.15,0,0,0-1.05,1.3,3.05,3.05,0,0,1-1.37,1.61c-.65.41-1.54.73-1.06,1.05s1.05-.16,1.05-.16-.56.89.08,1.46,2.51-.16,2.51-.16-.16.4.65.32a2.36,2.36,0,0,0,1.37-.73s-.24.73,1.05,0a6.3,6.3,0,0,0,2.1-2.34,3,3,0,0,1-1.7-1l-2.42-.33.32-1.29Z" style="fill:#fff;stroke:#263238;stroke-linecap:round;stroke-linejoin:round;stroke-width:0.5px"></path><path d="M324.45,150.3s-3.82-1.48-5.21-.61" style="fill:none;stroke:#263238;stroke-linecap:round;stroke-linejoin:round;stroke-width:0.5px"></path></g></svg>